<svg width="596" height="355" viewBox="0 0 596 355" fill="none" xmlns="http://www.w3.org/2000/svg">
<g clip-path="url(#clip0_2610_740)">
<path d="M10.8 137.82V156H5.34V113.04H23.1C27.62 113.04 31.02 114.28 33.3 116.76C35.3 118.92 36.3 121.88 36.3 125.64C36.3 129.44 35.08 132.46 32.64 134.7C30.4 136.78 27.62 137.82 24.3 137.82H10.8ZM10.8 132.96H22.26C24.86 132.96 26.9 132.3 28.38 130.98C29.86 129.66 30.6 127.8 30.6 125.4C30.6 123.04 29.86 121.2 28.38 119.88C26.9 118.56 24.86 117.9 22.26 117.9H10.8V132.96ZM69.4964 142.02H46.7564C46.7964 144.66 47.3564 146.76 48.4364 148.32C50.1564 150.84 52.6364 152.1 55.8764 152.1C59.8764 152.1 62.5764 150.2 63.9764 146.4H68.8964C68.2564 149.64 66.7764 152.16 64.4564 153.96C62.1364 155.76 59.2164 156.66 55.6964 156.66C51.0164 156.66 47.4364 155.06 44.9564 151.86C42.7564 149.06 41.6564 145.36 41.6564 140.76C41.6564 135.44 43.0964 131.3 45.9764 128.34C48.4964 125.78 51.7564 124.5 55.7564 124.5C58.6764 124.5 61.2364 125.2 63.4364 126.6C65.6764 128 67.2764 129.92 68.2364 132.36C69.0764 134.44 69.4964 137.6 69.4964 141.84V142.02ZM64.2164 138C64.2164 135.32 63.4164 133.16 61.8164 131.52C60.2564 129.84 58.2364 129 55.7564 129C53.2364 129 51.1764 129.82 49.5764 131.46C48.0164 133.06 47.1364 135.24 46.9364 138H64.2164ZM76.1503 125.16H80.7103V130.8C82.5103 126.56 85.3503 124.44 89.2303 124.44C89.7103 124.44 90.2903 124.5 90.9703 124.62V129.66C87.7703 129.7 85.5703 130.16 84.3703 131.04C82.1703 132.64 81.0703 135.62 81.0703 139.98V156H76.1503V125.16ZM117.739 133.62H112.339C112.179 130.54 110.119 129 106.159 129C104.119 129 102.499 129.4 101.299 130.2C100.139 130.96 99.5592 132 99.5592 133.32C99.5592 135.32 101.459 136.76 105.259 137.64L109.999 138.72C113.079 139.44 115.299 140.46 116.659 141.78C118.019 143.1 118.699 144.9 118.699 147.18C118.699 150.1 117.559 152.42 115.279 154.14C112.999 155.82 109.919 156.66 106.039 156.66C101.799 156.66 98.5792 155.66 96.3792 153.66C94.5392 152.02 93.5592 149.84 93.4392 147.12H99.0192C99.3392 148.52 99.7792 149.54 100.339 150.18C101.419 151.46 103.439 152.1 106.399 152.1C108.599 152.1 110.339 151.7 111.619 150.9C112.939 150.06 113.599 148.96 113.599 147.6C113.599 145.56 112.019 144.16 108.859 143.4L104.239 142.32C100.719 141.48 98.2592 140.48 96.8592 139.32C95.2592 138 94.4592 136.1 94.4592 133.62C94.4592 130.82 95.5192 128.6 97.6392 126.96C99.7992 125.32 102.679 124.5 106.279 124.5C110.039 124.5 112.959 125.44 115.039 127.32C116.839 128.96 117.739 131.06 117.739 133.62ZM137.372 124.5C142.012 124.5 145.552 126.12 147.992 129.36C150.152 132.16 151.232 135.96 151.232 140.76C151.232 146.12 149.832 150.2 147.032 153C144.632 155.44 141.392 156.66 137.312 156.66C132.592 156.66 128.992 155.08 126.512 151.92C124.352 149.16 123.272 145.44 123.272 140.76C123.272 135.32 124.692 131.14 127.532 128.22C129.972 125.74 133.252 124.5 137.372 124.5ZM137.372 129C134.572 129 132.372 130.06 130.772 132.18C129.172 134.26 128.372 137.12 128.372 140.76C128.372 144.56 129.272 147.46 131.072 149.46C132.632 151.22 134.712 152.1 137.312 152.1C140.072 152.1 142.212 151.1 143.732 149.1C145.292 147.1 146.072 144.32 146.072 140.76C146.072 136.84 145.192 133.84 143.432 131.76C141.912 129.92 139.892 129 137.372 129ZM158.066 125.16H162.626V130.38C165.106 126.46 168.506 124.5 172.826 124.5C175.826 124.5 178.206 125.26 179.966 126.78C181.726 128.26 182.606 130.26 182.606 132.78V156H177.746V134.76C177.746 132.92 177.166 131.46 176.006 130.38C174.886 129.3 173.346 128.76 171.386 128.76C168.826 128.76 166.786 129.7 165.266 131.58C163.746 133.46 162.986 135.96 162.986 139.08V156H158.066V125.16ZM218.18 151.86V155.82C216.82 156.3 215.76 156.54 215 156.54C211.8 156.54 210.06 155.08 209.78 152.16C207.58 155.16 204.08 156.66 199.28 156.66C195.96 156.66 193.38 155.74 191.54 153.9C189.94 152.3 189.14 150.24 189.14 147.72C189.14 144.84 190.16 142.62 192.2 141.06C193.36 140.18 195.78 139.32 199.46 138.48L209.54 136.2L209.6 133.62C209.6 130.54 207.28 129 202.64 129C198.2 129 195.82 130.8 195.5 134.4H190.52C190.64 131.68 191.32 129.6 192.56 128.16C194.68 125.72 198.12 124.5 202.88 124.5C210.6 124.5 214.46 127.3 214.46 132.9V150.12C214.46 151.64 215.12 152.4 216.44 152.4C216.6 152.4 217.02 152.28 217.7 152.04C217.94 151.96 218.1 151.9 218.18 151.86ZM209.6 140.22L201.68 142.26C198.84 142.98 196.88 143.72 195.8 144.48C194.76 145.24 194.24 146.3 194.24 147.66C194.24 150.82 196.28 152.4 200.36 152.4C203.24 152.4 205.68 151.46 207.68 149.58C208.96 148.42 209.6 147.1 209.6 145.62V140.22ZM228.374 113.04V156H223.454V113.04H228.374ZM241.26 125.16V156H236.4V125.16H241.26ZM238.92 113.1C239.76 113.1 240.46 113.4 241.02 114C241.62 114.56 241.92 115.24 241.92 116.04C241.92 116.88 241.62 117.6 241.02 118.2C240.46 118.76 239.76 119.04 238.92 119.04C238.12 119.04 237.42 118.76 236.82 118.2C236.26 117.6 235.98 116.88 235.98 116.04C235.98 115.24 236.26 114.56 236.82 114C237.42 113.4 238.12 113.1 238.92 113.1ZM271.606 133.62H266.206C266.046 130.54 263.986 129 260.026 129C257.986 129 256.366 129.4 255.166 130.2C254.006 130.96 253.426 132 253.426 133.32C253.426 135.32 255.326 136.76 259.126 137.64L263.866 138.72C266.946 139.44 269.166 140.46 270.526 141.78C271.886 143.1 272.566 144.9 272.566 147.18C272.566 150.1 271.426 152.42 269.146 154.14C266.866 155.82 263.786 156.66 259.906 156.66C255.666 156.66 252.446 155.66 250.246 153.66C248.406 152.02 247.426 149.84 247.306 147.12H252.886C253.206 148.52 253.646 149.54 254.206 150.18C255.286 151.46 257.306 152.1 260.266 152.1C262.466 152.1 264.206 151.7 265.486 150.9C266.806 150.06 267.466 148.96 267.466 147.6C267.466 145.56 265.886 144.16 262.726 143.4L258.106 142.32C254.586 141.48 252.126 140.48 250.726 139.32C249.126 138 248.326 136.1 248.326 133.62C248.326 130.82 249.386 128.6 251.506 126.96C253.666 125.32 256.546 124.5 260.146 124.5C263.906 124.5 266.826 125.44 268.906 127.32C270.706 128.96 271.606 131.06 271.606 133.62ZM305.219 142.02H282.479C282.519 144.66 283.079 146.76 284.159 148.32C285.879 150.84 288.359 152.1 291.599 152.1C295.599 152.1 298.299 150.2 299.699 146.4H304.619C303.979 149.64 302.499 152.16 300.179 153.96C297.859 155.76 294.939 156.66 291.419 156.66C286.739 156.66 283.159 155.06 280.679 151.86C278.479 149.06 277.379 145.36 277.379 140.76C277.379 135.44 278.819 131.3 281.699 128.34C284.219 125.78 287.479 124.5 291.479 124.5C294.399 124.5 296.959 125.2 299.159 126.6C301.399 128 302.999 129.92 303.959 132.36C304.799 134.44 305.219 137.6 305.219 141.84V142.02ZM299.939 138C299.939 135.32 299.139 133.16 297.539 131.52C295.979 129.84 293.959 129 291.479 129C288.959 129 286.899 129.82 285.299 131.46C283.739 133.06 282.859 135.24 282.659 138H299.939ZM337.013 113.04V156H332.093V151.74C330.133 155.06 327.093 156.72 322.973 156.72C318.453 156.72 314.973 155.08 312.533 151.8C310.413 148.92 309.353 145.12 309.353 140.4C309.353 135.24 310.733 131.2 313.493 128.28C315.853 125.76 318.913 124.5 322.673 124.5C326.833 124.5 329.973 126.06 332.093 129.18V113.04H337.013ZM323.513 129.06C320.793 129.06 318.593 130.14 316.913 132.3C315.273 134.42 314.453 137.24 314.453 140.76C314.453 144.4 315.413 147.26 317.333 149.34C318.973 151.18 321.053 152.1 323.573 152.1C326.173 152.1 328.233 151.08 329.753 149.04C331.313 147 332.093 144.24 332.093 140.76C332.093 136.96 331.213 134 329.453 131.88C327.893 130 325.913 129.06 323.513 129.06ZM10.92 212.52V231H5.46V188.04H25.2C29.76 188.04 33.16 189.16 35.4 191.4C37.36 193.36 38.34 196.08 38.34 199.56C38.34 202 37.8 204.02 36.72 205.62C35.68 207.22 33.94 208.62 31.5 209.82C33.46 210.58 34.9 211.6 35.82 212.88C36.74 214.2 37.26 216.9 37.38 220.98C37.46 223.98 37.64 226 37.92 227.04C38.24 228.04 38.92 228.9 39.96 229.62V231H33.36C32.48 229.16 32.04 227.22 32.04 225.18L32.1 218.46C32.1 218.02 31.92 217.34 31.56 216.42C31.2 215.5 30.86 214.84 30.54 214.44C29.46 213.16 27.62 212.52 25.02 212.52H10.92ZM10.92 207.66H24.18C29.82 207.66 32.64 205.2 32.64 200.28C32.64 195.36 29.82 192.9 24.18 192.9H10.92V207.66ZM72.7191 217.02H49.9791C50.0191 219.66 50.5791 221.76 51.6591 223.32C53.3791 225.84 55.8591 227.1 59.0991 227.1C63.0991 227.1 65.7991 225.2 67.1991 221.4H72.1191C71.4791 224.64 69.9991 227.16 67.6791 228.96C65.3591 230.76 62.4391 231.66 58.9191 231.66C54.2391 231.66 50.6591 230.06 48.1791 226.86C45.9791 224.06 44.8791 220.36 44.8791 215.76C44.8791 210.44 46.3191 206.3 49.1991 203.34C51.7191 200.78 54.9791 199.5 58.9791 199.5C61.8991 199.5 64.4591 200.2 66.6591 201.6C68.8991 203 70.4991 204.92 71.4591 207.36C72.2991 209.44 72.7191 212.6 72.7191 216.84V217.02ZM67.4391 213C67.4391 210.32 66.6391 208.16 65.0391 206.52C63.4791 204.84 61.4591 204 58.9791 204C56.4591 204 54.3991 204.82 52.7991 206.46C51.2391 208.06 50.3591 210.24 50.1591 213H67.4391ZM103.013 210.48H98.093C97.493 206.16 95.053 204 90.773 204C88.093 204 85.993 205.06 84.473 207.18C82.953 209.3 82.193 212.24 82.193 216C82.193 219.72 83.093 222.56 84.893 224.52C86.413 226.24 88.453 227.1 91.013 227.1C95.133 227.1 97.593 224.86 98.393 220.38H103.373C103.053 224.22 101.673 227.12 99.233 229.08C97.113 230.8 94.333 231.66 90.893 231.66C86.373 231.66 82.853 230.06 80.333 226.86C78.173 224.1 77.093 220.48 77.093 216C77.093 210.64 78.513 206.44 81.353 203.4C83.793 200.8 86.953 199.5 90.833 199.5C95.313 199.5 98.673 201 100.913 204C102.073 205.56 102.773 207.72 103.013 210.48ZM120.966 199.5C125.606 199.5 129.146 201.12 131.586 204.36C133.746 207.16 134.826 210.96 134.826 215.76C134.826 221.12 133.426 225.2 130.626 228C128.226 230.44 124.986 231.66 120.906 231.66C116.186 231.66 112.586 230.08 110.106 226.92C107.946 224.16 106.866 220.44 106.866 215.76C106.866 210.32 108.286 206.14 111.126 203.22C113.566 200.74 116.846 199.5 120.966 199.5ZM120.966 204C118.166 204 115.966 205.06 114.366 207.18C112.766 209.26 111.966 212.12 111.966 215.76C111.966 219.56 112.866 222.46 114.666 224.46C116.226 226.22 118.306 227.1 120.906 227.1C123.666 227.1 125.806 226.1 127.326 224.1C128.886 222.1 129.666 219.32 129.666 215.76C129.666 211.84 128.786 208.84 127.026 206.76C125.506 204.92 123.486 204 120.966 204ZM141.66 200.16H146.22V204.6C148.62 201.2 151.78 199.5 155.7 199.5C159.5 199.5 162.26 201.02 163.98 204.06C165.46 202.34 166.88 201.16 168.24 200.52C169.64 199.84 171.36 199.5 173.4 199.5C179.4 199.5 182.4 202.32 182.4 207.96V231H177.48V209.88C177.48 205.8 175.56 203.76 171.72 203.76C169.72 203.76 168.02 204.54 166.62 206.1C165.22 207.66 164.52 209.52 164.52 211.68V231H159.6V209.88C159.6 205.8 157.7 203.76 153.9 203.76C151.86 203.76 150.12 204.54 148.68 206.1C147.28 207.62 146.58 209.48 146.58 211.68V231H141.66V200.16ZM190.761 200.16H195.321V204.6C197.721 201.2 200.881 199.5 204.801 199.5C208.601 199.5 211.361 201.02 213.081 204.06C214.561 202.34 215.981 201.16 217.341 200.52C218.741 199.84 220.461 199.5 222.501 199.5C228.501 199.5 231.501 202.32 231.501 207.96V231H226.581V209.88C226.581 205.8 224.661 203.76 220.821 203.76C218.821 203.76 217.121 204.54 215.721 206.1C214.321 207.66 213.621 209.52 213.621 211.68V231H208.701V209.88C208.701 205.8 206.801 203.76 203.001 203.76C200.961 203.76 199.221 204.54 197.781 206.1C196.381 207.62 195.681 209.48 195.681 211.68V231H190.761V200.16ZM265.903 217.02H243.163C243.203 219.66 243.763 221.76 244.843 223.32C246.563 225.84 249.043 227.1 252.283 227.1C256.283 227.1 258.983 225.2 260.383 221.4H265.303C264.663 224.64 263.183 227.16 260.863 228.96C258.543 230.76 255.623 231.66 252.103 231.66C247.423 231.66 243.843 230.06 241.363 226.86C239.163 224.06 238.063 220.36 238.063 215.76C238.063 210.44 239.503 206.3 242.383 203.34C244.903 200.78 248.163 199.5 252.163 199.5C255.083 199.5 257.643 200.2 259.843 201.6C262.083 203 263.683 204.92 264.643 207.36C265.483 209.44 265.903 212.6 265.903 216.84V217.02ZM260.623 213C260.623 210.32 259.823 208.16 258.223 206.52C256.663 204.84 254.643 204 252.163 204C249.643 204 247.583 204.82 245.983 206.46C244.423 208.06 243.543 210.24 243.343 213H260.623ZM272.617 200.16H277.177V205.38C279.657 201.46 283.057 199.5 287.377 199.5C290.377 199.5 292.757 200.26 294.517 201.78C296.277 203.26 297.157 205.26 297.157 207.78V231H292.297V209.76C292.297 207.92 291.717 206.46 290.557 205.38C289.437 204.3 287.897 203.76 285.937 203.76C283.377 203.76 281.337 204.7 279.817 206.58C278.297 208.46 277.537 210.96 277.537 214.08V231H272.617V200.16ZM330.45 188.04V231H325.53V226.74C323.57 230.06 320.53 231.72 316.41 231.72C311.89 231.72 308.41 230.08 305.97 226.8C303.85 223.92 302.79 220.12 302.79 215.4C302.79 210.24 304.17 206.2 306.93 203.28C309.29 200.76 312.35 199.5 316.11 199.5C320.27 199.5 323.41 201.06 325.53 204.18V188.04H330.45ZM316.95 204.06C314.23 204.06 312.03 205.14 310.35 207.3C308.71 209.42 307.89 212.24 307.89 215.76C307.89 219.4 308.85 222.26 310.77 224.34C312.41 226.18 314.49 227.1 317.01 227.1C319.61 227.1 321.67 226.08 323.19 224.04C324.75 222 325.53 219.24 325.53 215.76C325.53 211.96 324.65 209 322.89 206.88C321.33 205 319.35 204.06 316.95 204.06ZM365.484 226.86V230.82C364.124 231.3 363.064 231.54 362.304 231.54C359.104 231.54 357.364 230.08 357.084 227.16C354.884 230.16 351.384 231.66 346.584 231.66C343.264 231.66 340.684 230.74 338.844 228.9C337.244 227.3 336.444 225.24 336.444 222.72C336.444 219.84 337.464 217.62 339.504 216.06C340.664 215.18 343.084 214.32 346.764 213.48L356.844 211.2L356.904 208.62C356.904 205.54 354.584 204 349.944 204C345.504 204 343.124 205.8 342.804 209.4H337.824C337.944 206.68 338.624 204.6 339.864 203.16C341.984 200.72 345.424 199.5 350.184 199.5C357.904 199.5 361.764 202.3 361.764 207.9V225.12C361.764 226.64 362.424 227.4 363.744 227.4C363.904 227.4 364.324 227.28 365.004 227.04C365.244 226.96 365.404 226.9 365.484 226.86ZM356.904 215.22L348.984 217.26C346.144 217.98 344.184 218.72 343.104 219.48C342.064 220.24 341.544 221.3 341.544 222.66C341.544 225.82 343.584 227.4 347.664 227.4C350.544 227.4 352.984 226.46 354.984 224.58C356.264 223.42 356.904 222.1 356.904 220.62V215.22ZM382.938 200.16V204.12H376.638V224.64C376.638 225.36 376.878 225.98 377.358 226.5C377.878 226.98 378.538 227.22 379.338 227.22C380.098 227.22 381.258 227.04 382.818 226.68L383.358 231C380.878 231.44 378.998 231.66 377.718 231.66C373.758 231.66 371.778 230.04 371.778 226.8V204.12H367.578V200.16H371.778V193.86L376.638 191.64V200.16H382.938ZM393.311 200.16V231H388.451V200.16H393.311ZM390.971 188.1C391.811 188.1 392.511 188.4 393.071 189C393.671 189.56 393.971 190.24 393.971 191.04C393.971 191.88 393.671 192.6 393.071 193.2C392.511 193.76 391.811 194.04 390.971 194.04C390.171 194.04 389.471 193.76 388.871 193.2C388.311 192.6 388.031 191.88 388.031 191.04C388.031 190.24 388.311 189.56 388.871 189C389.471 188.4 390.171 188.1 390.971 188.1ZM413.817 199.5C418.457 199.5 421.997 201.12 424.437 204.36C426.597 207.16 427.677 210.96 427.677 215.76C427.677 221.12 426.277 225.2 423.477 228C421.077 230.44 417.837 231.66 413.757 231.66C409.037 231.66 405.437 230.08 402.957 226.92C400.797 224.16 399.717 220.44 399.717 215.76C399.717 210.32 401.137 206.14 403.977 203.22C406.417 200.74 409.697 199.5 413.817 199.5ZM413.817 204C411.017 204 408.817 205.06 407.217 207.18C405.617 209.26 404.817 212.12 404.817 215.76C404.817 219.56 405.717 222.46 407.517 224.46C409.077 226.22 411.157 227.1 413.757 227.1C416.517 227.1 418.657 226.1 420.177 224.1C421.737 222.1 422.517 219.32 422.517 215.76C422.517 211.84 421.637 208.84 419.877 206.76C418.357 204.92 416.337 204 413.817 204ZM434.511 200.16H439.071V205.38C441.551 201.46 444.951 199.5 449.271 199.5C452.271 199.5 454.651 200.26 456.411 201.78C458.171 203.26 459.051 205.26 459.051 207.78V231H454.191V209.76C454.191 207.92 453.611 206.46 452.451 205.38C451.331 204.3 449.791 203.76 447.831 203.76C445.271 203.76 443.231 204.7 441.711 206.58C440.191 208.46 439.431 210.96 439.431 214.08V231H434.511V200.16ZM489.165 208.62H483.765C483.605 205.54 481.545 204 477.585 204C475.545 204 473.925 204.4 472.725 205.2C471.565 205.96 470.985 207 470.985 208.32C470.985 210.32 472.885 211.76 476.685 212.64L481.425 213.72C484.505 214.44 486.725 215.46 488.085 216.78C489.445 218.1 490.125 219.9 490.125 222.18C490.125 225.1 488.985 227.42 486.705 229.14C484.425 230.82 481.345 231.66 477.465 231.66C473.225 231.66 470.005 230.66 467.805 228.66C465.965 227.02 464.985 224.84 464.865 222.12H470.445C470.765 223.52 471.205 224.54 471.765 225.18C472.845 226.46 474.865 227.1 477.825 227.1C480.025 227.1 481.765 226.7 483.045 225.9C484.365 225.06 485.025 223.96 485.025 222.6C485.025 220.56 483.445 219.16 480.285 218.4L475.665 217.32C472.145 216.48 469.685 215.48 468.285 214.32C466.685 213 465.885 211.1 465.885 208.62C465.885 205.82 466.945 203.6 469.065 201.96C471.225 200.32 474.105 199.5 477.705 199.5C481.465 199.5 484.385 200.44 486.465 202.32C488.265 203.96 489.165 206.06 489.165 208.62Z" fill="#BFC1FF"/>
<path d="M267.794 71.3565C287.64 50.3656 312.264 30.2651 340.882 22.9799C366.851 16.3691 401.509 12.7371 421.955 34.4232C433.62 46.7944 408.314 69.1616 400.711 75.9861C384.054 90.9375 364.851 103.553 342.477 107.292C339.755 107.747 319.63 109.297 322.059 102.286C324.094 96.4104 332.233 91.7135 336.967 88.412C350.656 78.8657 367.206 73.083 383.207 68.8542C397.076 65.1891 411.533 63.276 425.862 62.7141C438.322 62.2254 450.247 62.571 461.85 67.5308C472.162 71.9392 487.006 80.8312 482.246 94.1997C478.318 105.233 467.608 115.236 458.229 121.577C448.958 127.844 439.119 133.271 429.111 138.256C422.855 141.371 416.405 144.868 409.507 146.354C404.006 147.54 399.599 148.577 398.658 142.174C397.887 136.933 400.277 130.995 403.307 126.884C410.448 117.197 420.687 108.549 430.515 101.702C440.072 95.0439 449.159 91.1406 460.825 90.4122C472.178 89.7034 482.952 91.4853 493.903 94.4047C508.211 98.2195 524.069 105.559 535.109 115.721C537.211 117.656 544.824 127.118 539.401 129.693" stroke="#F5F5F5" stroke-width="3" stroke-linecap="round"/>
<path d="M262.585 48.254C262.294 51.6578 254.996 92.0891 255.532 92.1277C258.428 92.3365 264.227 88.9478 266.793 87.9885C283.079 81.8992 298.342 75.971 313.688 67.8519" stroke="#F5F5F5" stroke-width="3" stroke-linecap="round"/>
</g>
<defs>
<clipPath id="clip0_2610_740">
<rect width="596" height="355" fill="white"/>
</clipPath>
</defs>
</svg>
