<svg width="596" height="355" viewBox="0 0 596 355" fill="none" xmlns="http://www.w3.org/2000/svg">
<path d="M11.46 113.04V156H5.88V113.04H11.46ZM20.5463 125.16H25.1063V130.38C27.5863 126.46 30.9863 124.5 35.3063 124.5C38.3063 124.5 40.6863 125.26 42.4463 126.78C44.2063 128.26 45.0863 130.26 45.0863 132.78V156H40.2263V134.76C40.2263 132.92 39.6463 131.46 38.4863 130.38C37.3663 129.3 35.8263 128.76 33.8663 128.76C31.3063 128.76 29.2663 129.7 27.7463 131.58C26.2263 133.46 25.4663 135.96 25.4663 139.08V156H20.5463V125.16ZM64.3402 125.16V129.12H59.2402V156H54.3802V129.12H50.2402V125.16H54.3802V119.88C54.3802 117.68 55.0002 115.96 56.2402 114.72C57.5202 113.48 59.3002 112.86 61.5802 112.86C62.4602 112.86 63.3802 112.96 64.3402 113.16V117.24H63.8002C63.3602 117.2 62.9802 117.18 62.6602 117.18C60.3802 117.18 59.2402 118.22 59.2402 120.3V125.16H64.3402ZM81.7664 124.5C86.4064 124.5 89.9464 126.12 92.3864 129.36C94.5464 132.16 95.6264 135.96 95.6264 140.76C95.6264 146.12 94.2264 150.2 91.4264 153C89.0264 155.44 85.7864 156.66 81.7064 156.66C76.9864 156.66 73.3864 155.08 70.9064 151.92C68.7464 149.16 67.6664 145.44 67.6664 140.76C67.6664 135.32 69.0864 131.14 71.9264 128.22C74.3664 125.74 77.6464 124.5 81.7664 124.5ZM81.7664 129C78.9664 129 76.7664 130.06 75.1664 132.18C73.5664 134.26 72.7664 137.12 72.7664 140.76C72.7664 144.56 73.6664 147.46 75.4664 149.46C77.0264 151.22 79.1064 152.1 81.7064 152.1C84.4664 152.1 86.6064 151.1 88.1264 149.1C89.6864 147.1 90.4664 144.32 90.4664 140.76C90.4664 136.84 89.5864 133.84 87.8264 131.76C86.3064 129.92 84.2864 129 81.7664 129ZM102.4 125.16H106.96V130.8C108.76 126.56 111.6 124.44 115.48 124.44C115.96 124.44 116.54 124.5 117.22 124.62V129.66C114.02 129.7 111.82 130.16 110.62 131.04C108.42 132.64 107.32 135.62 107.32 139.98V156H102.4V125.16ZM122.089 125.16H126.649V129.6C129.049 126.2 132.209 124.5 136.129 124.5C139.929 124.5 142.689 126.02 144.409 129.06C145.889 127.34 147.309 126.16 148.669 125.52C150.069 124.84 151.789 124.5 153.829 124.5C159.829 124.5 162.829 127.32 162.829 132.96V156H157.909V134.88C157.909 130.8 155.989 128.76 152.149 128.76C150.149 128.76 148.449 129.54 147.049 131.1C145.649 132.66 144.949 134.52 144.949 136.68V156H140.029V134.88C140.029 130.8 138.129 128.76 134.329 128.76C132.289 128.76 130.549 129.54 129.109 131.1C127.709 132.62 127.009 134.48 127.009 136.68V156H122.089V125.16ZM197.231 142.02H174.491C174.531 144.66 175.091 146.76 176.171 148.32C177.891 150.84 180.371 152.1 183.611 152.1C187.611 152.1 190.311 150.2 191.711 146.4H196.631C195.991 149.64 194.511 152.16 192.191 153.96C189.871 155.76 186.951 156.66 183.431 156.66C178.751 156.66 175.171 155.06 172.691 151.86C170.491 149.06 169.391 145.36 169.391 140.76C169.391 135.44 170.831 131.3 173.711 128.34C176.231 125.78 179.491 124.5 183.491 124.5C186.411 124.5 188.971 125.2 191.171 126.6C193.411 128 195.011 129.92 195.971 132.36C196.811 134.44 197.231 137.6 197.231 141.84V142.02ZM191.951 138C191.951 135.32 191.151 133.16 189.551 131.52C187.991 129.84 185.971 129 183.491 129C180.971 129 178.911 129.82 177.311 131.46C175.751 133.06 174.871 135.24 174.671 138H191.951ZM229.025 113.04V156H224.105V151.74C222.145 155.06 219.105 156.72 214.985 156.72C210.465 156.72 206.985 155.08 204.545 151.8C202.425 148.92 201.365 145.12 201.365 140.4C201.365 135.24 202.745 131.2 205.505 128.28C207.865 125.76 210.925 124.5 214.685 124.5C218.845 124.5 221.985 126.06 224.105 129.18V113.04H229.025ZM215.525 129.06C212.805 129.06 210.605 130.14 208.925 132.3C207.285 134.42 206.465 137.24 206.465 140.76C206.465 144.4 207.425 147.26 209.345 149.34C210.985 151.18 213.065 152.1 215.585 152.1C218.185 152.1 220.245 151.08 221.765 149.04C223.325 147 224.105 144.24 224.105 140.76C224.105 136.96 223.225 134 221.465 131.88C219.905 130 217.925 129.06 215.525 129.06ZM254.374 137.82V156H248.914V113.04H266.674C271.194 113.04 274.594 114.28 276.874 116.76C278.874 118.92 279.874 121.88 279.874 125.64C279.874 129.44 278.654 132.46 276.214 134.7C273.974 136.78 271.194 137.82 267.874 137.82H254.374ZM254.374 132.96H265.834C268.434 132.96 270.474 132.3 271.954 130.98C273.434 129.66 274.174 127.8 274.174 125.4C274.174 123.04 273.434 121.2 271.954 119.88C270.474 118.56 268.434 117.9 265.834 117.9H254.374V132.96ZM286.971 125.16H291.531V130.8C293.331 126.56 296.171 124.44 300.051 124.44C300.531 124.44 301.111 124.5 301.791 124.62V129.66C298.591 129.7 296.391 130.16 295.191 131.04C292.991 132.64 291.891 135.62 291.891 139.98V156H286.971V125.16ZM318.72 124.5C323.36 124.5 326.9 126.12 329.34 129.36C331.5 132.16 332.58 135.96 332.58 140.76C332.58 146.12 331.18 150.2 328.38 153C325.98 155.44 322.74 156.66 318.66 156.66C313.94 156.66 310.34 155.08 307.86 151.92C305.7 149.16 304.62 145.44 304.62 140.76C304.62 135.32 306.04 131.14 308.88 128.22C311.32 125.74 314.6 124.5 318.72 124.5ZM318.72 129C315.92 129 313.72 130.06 312.12 132.18C310.52 134.26 309.72 137.12 309.72 140.76C309.72 144.56 310.62 147.46 312.42 149.46C313.98 151.22 316.06 152.1 318.66 152.1C321.42 152.1 323.56 151.1 325.08 149.1C326.64 147.1 327.42 144.32 327.42 140.76C327.42 136.84 326.54 133.84 324.78 131.76C323.26 129.92 321.24 129 318.72 129ZM364.493 113.04V156H359.573V151.74C357.613 155.06 354.573 156.72 350.453 156.72C345.933 156.72 342.453 155.08 340.013 151.8C337.893 148.92 336.833 145.12 336.833 140.4C336.833 135.24 338.213 131.2 340.973 128.28C343.333 125.76 346.393 124.5 350.153 124.5C354.313 124.5 357.453 126.06 359.573 129.18V113.04H364.493ZM350.993 129.06C348.273 129.06 346.073 130.14 344.393 132.3C342.753 134.42 341.933 137.24 341.933 140.76C341.933 144.4 342.893 147.26 344.813 149.34C346.453 151.18 348.533 152.1 351.053 152.1C353.653 152.1 355.713 151.08 357.233 149.04C358.793 147 359.573 144.24 359.573 140.76C359.573 136.96 358.693 134 356.933 131.88C355.373 130 353.393 129.06 350.993 129.06ZM396.407 156H391.547V151.14C389.347 154.82 386.067 156.66 381.707 156.66C378.707 156.66 376.307 155.92 374.507 154.44C372.747 152.92 371.867 150.9 371.867 148.38V125.16H376.727V146.4C376.727 148.2 377.307 149.64 378.467 150.72C379.627 151.8 381.187 152.34 383.147 152.34C385.707 152.34 387.747 151.42 389.267 149.58C390.787 147.7 391.547 145.18 391.547 142.02V125.16H396.407V156ZM428.501 135.48H423.581C422.981 131.16 420.541 129 416.261 129C413.581 129 411.481 130.06 409.961 132.18C408.441 134.3 407.681 137.24 407.681 141C407.681 144.72 408.581 147.56 410.381 149.52C411.901 151.24 413.941 152.1 416.501 152.1C420.621 152.1 423.081 149.86 423.881 145.38H428.861C428.541 149.22 427.161 152.12 424.721 154.08C422.601 155.8 419.821 156.66 416.381 156.66C411.861 156.66 408.341 155.06 405.821 151.86C403.661 149.1 402.581 145.48 402.581 141C402.581 135.64 404.001 131.44 406.841 128.4C409.281 125.8 412.441 124.5 416.321 124.5C420.801 124.5 424.161 126 426.401 129C427.561 130.56 428.261 132.72 428.501 135.48ZM446.454 125.16V129.12H440.154V149.64C440.154 150.36 440.394 150.98 440.874 151.5C441.394 151.98 442.054 152.22 442.854 152.22C443.614 152.22 444.774 152.04 446.334 151.68L446.874 156C444.394 156.44 442.514 156.66 441.234 156.66C437.274 156.66 435.294 155.04 435.294 151.8V129.12H431.094V125.16H435.294V118.86L440.154 116.64V125.16H446.454ZM5.22 231V188.04H21.78C27.58 188.04 32.04 190.2 35.16 194.52C37.88 198.32 39.24 203.32 39.24 209.52C39.24 216.64 37.48 222.12 33.96 225.96C30.88 229.32 26.82 231 21.78 231H5.22ZM10.68 226.14H20.82C29.46 226.14 33.78 220.6 33.78 209.52C33.78 198.44 29.46 192.9 20.82 192.9H10.68V226.14ZM72.7191 217.02H49.9791C50.0191 219.66 50.5791 221.76 51.6591 223.32C53.3791 225.84 55.8591 227.1 59.0991 227.1C63.0991 227.1 65.7991 225.2 67.1991 221.4H72.1191C71.4791 224.64 69.9991 227.16 67.6791 228.96C65.3591 230.76 62.4391 231.66 58.9191 231.66C54.2391 231.66 50.6591 230.06 48.1791 226.86C45.9791 224.06 44.8791 220.36 44.8791 215.76C44.8791 210.44 46.3191 206.3 49.1991 203.34C51.7191 200.78 54.9791 199.5 58.9791 199.5C61.8991 199.5 64.4591 200.2 66.6591 201.6C68.8991 203 70.4991 204.92 71.4591 207.36C72.2991 209.44 72.7191 212.6 72.7191 216.84V217.02ZM67.4391 213C67.4391 210.32 66.6391 208.16 65.0391 206.52C63.4791 204.84 61.4591 204 58.9791 204C56.4591 204 54.3991 204.82 52.7991 206.46C51.2391 208.06 50.3591 210.24 50.1591 213H67.4391ZM92.093 231H86.753L75.893 200.16H81.473L89.633 225.12L98.393 200.16H103.913L92.093 231ZM134.946 217.02H112.206C112.246 219.66 112.806 221.76 113.886 223.32C115.606 225.84 118.086 227.1 121.326 227.1C125.326 227.1 128.026 225.2 129.426 221.4H134.346C133.706 224.64 132.226 227.16 129.906 228.96C127.586 230.76 124.666 231.66 121.146 231.66C116.466 231.66 112.886 230.06 110.406 226.86C108.206 224.06 107.106 220.36 107.106 215.76C107.106 210.44 108.546 206.3 111.426 203.34C113.946 200.78 117.206 199.5 121.206 199.5C124.126 199.5 126.686 200.2 128.886 201.6C131.126 203 132.726 204.92 133.686 207.36C134.526 209.44 134.946 212.6 134.946 216.84V217.02ZM129.666 213C129.666 210.32 128.866 208.16 127.266 206.52C125.706 204.84 123.686 204 121.206 204C118.686 204 116.626 204.82 115.026 206.46C113.466 208.06 112.586 210.24 112.386 213H129.666ZM146.46 188.04V231H141.54V188.04H146.46ZM166.786 199.5C171.426 199.5 174.966 201.12 177.406 204.36C179.566 207.16 180.646 210.96 180.646 215.76C180.646 221.12 179.246 225.2 176.446 228C174.046 230.44 170.806 231.66 166.726 231.66C162.006 231.66 158.406 230.08 155.926 226.92C153.766 224.16 152.686 220.44 152.686 215.76C152.686 210.32 154.106 206.14 156.946 203.22C159.386 200.74 162.666 199.5 166.786 199.5ZM166.786 204C163.986 204 161.786 205.06 160.186 207.18C158.586 209.26 157.786 212.12 157.786 215.76C157.786 219.56 158.686 222.46 160.486 224.46C162.046 226.22 164.126 227.1 166.726 227.1C169.486 227.1 171.626 226.1 173.146 224.1C174.706 222.1 175.486 219.32 175.486 215.76C175.486 211.84 174.606 208.84 172.846 206.76C171.326 204.92 169.306 204 166.786 204ZM186.52 243.84V200.16H191.08V204.9C193.36 201.3 196.64 199.5 200.92 199.5C205.28 199.5 208.64 201.18 211 204.54C213.08 207.46 214.12 211.3 214.12 216.06C214.12 221.14 212.76 225.1 210.04 227.94C207.68 230.42 204.62 231.66 200.86 231.66C197.06 231.66 193.92 230.28 191.44 227.52V243.84H186.52ZM200.08 204.06C197.48 204.06 195.38 205.12 193.78 207.24C192.22 209.36 191.44 212.2 191.44 215.76C191.44 219.44 192.34 222.32 194.14 224.4C195.66 226.16 197.64 227.04 200.08 227.04C202.8 227.04 204.96 226.02 206.56 223.98C208.2 221.9 209.02 219.16 209.02 215.76C209.02 212 208.1 209.04 206.26 206.88C204.62 205 202.56 204.06 200.08 204.06ZM220.234 200.16H224.794V204.6C227.194 201.2 230.354 199.5 234.274 199.5C238.074 199.5 240.834 201.02 242.554 204.06C244.034 202.34 245.454 201.16 246.814 200.52C248.214 199.84 249.934 199.5 251.974 199.5C257.974 199.5 260.974 202.32 260.974 207.96V231H256.054V209.88C256.054 205.8 254.134 203.76 250.294 203.76C248.294 203.76 246.594 204.54 245.194 206.1C243.794 207.66 243.094 209.52 243.094 211.68V231H238.174V209.88C238.174 205.8 236.274 203.76 232.474 203.76C230.434 203.76 228.694 204.54 227.254 206.1C225.854 207.62 225.154 209.48 225.154 211.68V231H220.234V200.16ZM295.375 217.02H272.635C272.675 219.66 273.235 221.76 274.315 223.32C276.035 225.84 278.515 227.1 281.755 227.1C285.755 227.1 288.455 225.2 289.855 221.4H294.775C294.135 224.64 292.655 227.16 290.335 228.96C288.015 230.76 285.095 231.66 281.575 231.66C276.895 231.66 273.315 230.06 270.835 226.86C268.635 224.06 267.535 220.36 267.535 215.76C267.535 210.44 268.975 206.3 271.855 203.34C274.375 200.78 277.635 199.5 281.635 199.5C284.555 199.5 287.115 200.2 289.315 201.6C291.555 203 293.155 204.92 294.115 207.36C294.955 209.44 295.375 212.6 295.375 216.84V217.02ZM290.095 213C290.095 210.32 289.295 208.16 287.695 206.52C286.135 204.84 284.115 204 281.635 204C279.115 204 277.055 204.82 275.455 206.46C273.895 208.06 273.015 210.24 272.815 213H290.095ZM302.089 200.16H306.649V205.38C309.129 201.46 312.529 199.5 316.849 199.5C319.849 199.5 322.229 200.26 323.989 201.78C325.749 203.26 326.629 205.26 326.629 207.78V231H321.769V209.76C321.769 207.92 321.189 206.46 320.029 205.38C318.909 204.3 317.369 203.76 315.409 203.76C312.849 203.76 310.809 204.7 309.289 206.58C307.769 208.46 307.009 210.96 307.009 214.08V231H302.089V200.16ZM346.903 200.16V204.12H340.603V224.64C340.603 225.36 340.843 225.98 341.323 226.5C341.843 226.98 342.503 227.22 343.303 227.22C344.063 227.22 345.223 227.04 346.783 226.68L347.323 231C344.843 231.44 342.963 231.66 341.683 231.66C337.723 231.66 335.743 230.04 335.743 226.8V204.12H331.543V200.16H335.743V193.86L340.603 191.64V200.16H346.903Z" fill="#F5F5F5"/>
<path d="M397 201.438C397.581 210.223 394.352 219.193 392.588 227.717C390.052 239.976 389.034 252.458 387.031 264.793C386.668 267.029 382.736 282.716 386.346 284.095C395.998 287.782 407.363 287.767 417.442 289.683C436.555 293.316 455.522 297.553 474.868 299.763C478.944 300.229 483.663 303.538 482.893 299.269C482.016 294.407 481.926 288.326 482.142 283.409C482.773 269.085 486.651 254.492 485.581 240.042C485.346 236.865 485.772 230.451 486.392 227.575C487.599 221.974 469.735 220.895 466.723 220.211C445.278 215.344 423.995 209.755 402.459 205.115" stroke="#F5F5F5" stroke-width="3" stroke-linecap="round"/>
<path d="M397.937 202.891C412.235 195.343 427.664 190.841 442.093 183.647" stroke="#F5F5F5" stroke-width="3" stroke-linecap="round"/>
<path d="M487.55 222.198C501 214.396 514.928 207.663 528.977 201.116" stroke="#F5F5F5" stroke-width="3" stroke-linecap="round"/>
<path d="M443.288 183.904C470.878 189.357 498.542 194.565 526.247 199.277" stroke="#F5F5F5" stroke-width="3" stroke-linecap="round"/>
<path d="M530.677 207.733C528.309 226.23 525.173 243.931 525.788 262.666C525.976 268.398 526.515 273.477 525.305 279.094" stroke="#F5F5F5" stroke-width="3" stroke-linecap="round"/>
<path d="M481.314 303.375C490.511 296.256 501.584 291.319 511.393 284.988C514.73 282.834 519.421 278.348 523.172 277.384" stroke="#F5F5F5" stroke-width="3" stroke-linecap="round"/>
<path d="M423.025 245.402C417.715 222.481 454.824 222.282 450.8 240.957C449.469 247.133 446.659 250.788 441.884 254.68C437.385 258.347 438.122 263.016 434.699 267.285" stroke="#F5F5F5" stroke-width="3" stroke-linecap="round"/>
<path d="M435.092 279.289C431.595 278.981 435.569 281.431 435.645 280.567C435.87 278.005 432.082 279.43 431.631 281.523" stroke="#F5F5F5" stroke-width="3" stroke-linecap="round"/>
<path d="M483.293 124.448C483.796 128.32 485.47 175.245 486.078 175.158C489.364 174.688 495.017 169.494 497.649 167.799C514.357 157.041 529.961 146.712 545.126 133.916" stroke="#F5F5F5" stroke-width="3" stroke-linecap="round"/>
<path d="M538.622 58C527.102 89.0158 511.324 118.922 497.754 149.148C494.146 157.183 489.58 164.983 489.58 173.916" stroke="#F5F5F5" stroke-width="3" stroke-linecap="round"/>
</svg>
