<svg width="733" height="94" viewBox="0 0 733 94" fill="none" xmlns="http://www.w3.org/2000/svg">
<path d="M77.5267 0V92.312H60.6079L20.2673 34.2111H19.5799V92.312H0V0H17.2007L57.2066 58.0658H58.0173V0H77.5267Z" fill="#100E0F"/>
<path d="M124.776 93.1367C117.673 93.1367 111.558 91.6973 106.429 88.8362C101.336 85.9399 97.4061 81.85 94.6392 76.5665C91.8723 71.2479 90.4976 64.9639 90.4976 57.7144C90.4976 50.465 91.8723 44.4267 94.6392 39.073C97.4061 33.7193 101.283 29.5592 106.288 26.5752C111.329 23.5911 117.233 22.0991 124 22.0991C128.565 22.0991 132.795 22.8364 136.725 24.2933C140.69 25.7326 144.127 27.8917 147.07 30.7879C150.03 33.6842 152.339 37.3352 153.996 41.7235C155.652 46.0767 156.463 51.1847 156.463 57.0474V62.2958H98.1287V50.465H138.416C138.416 47.7092 137.817 45.2868 136.619 43.1629C135.42 41.039 133.764 39.389 131.631 38.1954C129.534 36.9666 127.084 36.3523 124.3 36.3523C121.515 36.3523 118.819 37.0193 116.563 38.3709C114.342 39.6874 112.598 41.4602 111.346 43.707C110.095 45.9187 109.443 48.3762 109.408 51.0969V62.3485C109.408 65.7538 110.042 68.7027 111.294 71.1777C112.58 73.6527 114.395 75.566 116.739 76.9176C119.083 78.2692 121.85 78.9362 125.058 78.9362C127.19 78.9362 129.129 78.6378 130.909 78.041C132.671 77.4442 134.187 76.549 135.456 75.3554C136.707 74.1617 137.676 72.7048 138.328 70.9671L156.04 72.1256C155.141 76.3734 153.291 80.0771 150.506 83.2367C147.739 86.3787 144.179 88.8186 139.809 90.5739C135.456 92.3117 130.433 93.1718 124.74 93.1718L124.776 93.1367Z" fill="#100E0F"/>
<path d="M214.04 63.2085V23.4507H233.32V92.6803H214.815V80.1122H214.093C212.524 84.167 209.916 87.4319 206.268 89.8893C202.655 92.3468 198.231 93.593 193.015 93.593C188.362 93.593 184.273 92.5398 180.749 90.4335C177.224 88.3271 174.457 85.343 172.466 81.4638C170.509 77.5846 169.505 72.9505 169.487 67.5266V23.4507H188.768V64.1038C188.803 68.1936 189.895 71.4234 192.063 73.7931C194.231 76.1628 197.156 77.3564 200.805 77.3564C203.131 77.3564 205.299 76.8298 207.325 75.7766C209.352 74.6883 210.973 73.1085 212.207 71.0021C213.476 68.8958 214.093 66.2979 214.058 63.2085H214.04Z" fill="#100E0F"/>
<path d="M248.741 92.6803V23.4507H267.44V35.5273H268.162C269.431 31.2268 271.564 27.9794 274.542 25.7853C277.52 23.556 280.975 22.4502 284.87 22.4502C285.839 22.4502 286.879 22.5029 287.989 22.6257C289.099 22.7486 290.086 22.9066 290.932 23.1172V40.1613C290.033 39.898 288.782 39.6523 287.178 39.4416C285.574 39.231 284.112 39.1257 282.79 39.1257C279.953 39.1257 277.415 39.74 275.194 40.9688C272.991 42.1624 271.246 43.8475 269.942 46.0241C268.673 48.1831 268.039 50.6756 268.039 53.5017V92.6803H248.759H248.741Z" fill="#100E0F"/>
<path d="M395.714 50.7107H443.192V42.3379H395.714V8.82893H446.012V0.473633H386.461V92.6803H445.994V84.3074H395.714V50.7107Z" fill="#100E0F"/>
<path d="M528.262 22.4146C523.186 22.4146 518.798 23.5731 515.238 25.855C511.748 28.0842 509.193 31.1034 507.607 34.8422C506.056 31.0507 503.729 28.014 500.698 25.8199C497.579 23.5555 493.543 22.4146 488.732 22.4146C484.167 22.4146 480.184 23.4677 476.924 25.539C473.751 27.5576 471.425 30.3135 470.015 33.7714V23.3098H461.38V92.6798H470.227V48.3581C470.227 44.8826 470.949 41.7581 472.342 39.09C473.751 36.422 475.69 34.3156 478.14 32.8236C480.572 31.3315 483.374 30.5768 486.441 30.5768C491.005 30.5768 494.583 31.9635 497.085 34.7193C499.588 37.4751 500.874 41.1613 500.874 45.6549V92.6973H509.898V47.182C509.898 42.3725 511.29 38.3704 514.039 35.2459C516.771 32.1565 520.754 30.5768 525.847 30.5768C530.253 30.5768 533.831 31.8932 536.51 34.5087C539.188 37.1065 540.545 41.1086 540.545 46.3746V92.6973H549.392V46.3746C549.392 38.6337 547.489 32.6305 543.718 28.5757C539.946 24.5034 534.747 22.4321 528.262 22.4321V22.4146Z" fill="#100E0F"/>
<path d="M610.917 26.8031C606.335 23.7664 600.96 22.2217 594.95 22.2217C588.94 22.2217 583.583 23.7488 578.965 26.7679C574.365 29.7871 570.717 34.0525 568.127 39.4238C565.536 44.795 564.232 51.0966 564.232 58.1354C564.232 65.1742 565.536 71.3705 568.127 76.7242C570.717 82.0779 574.365 86.3258 578.965 89.3624C583.565 92.3991 588.94 93.9438 594.95 93.9438C600.96 93.9438 606.335 92.3991 610.935 89.3624C615.534 86.3258 619.182 82.0779 621.773 76.7242C624.364 71.388 625.668 65.1216 625.668 58.1354C625.668 51.1493 624.346 44.795 621.756 39.4413C619.147 34.07 615.517 29.8222 610.917 26.7855V26.8031ZM616.768 58.153C616.768 63.1907 615.904 67.8598 614.23 72.0375C612.556 76.1976 610.053 79.5678 606.828 82.0603C603.603 84.5353 599.62 85.7992 594.968 85.7992C590.315 85.7992 586.314 84.5353 583.107 82.0603C579.864 79.5678 577.379 76.18 575.705 72.0375C574.013 67.8598 573.167 63.1907 573.167 58.153C573.167 53.1152 574.031 48.4285 575.705 44.2158C577.379 40.0206 579.882 36.6153 583.124 34.1052C586.35 31.5951 590.35 30.3137 594.968 30.3137C599.585 30.3137 603.621 31.5951 606.828 34.1052C610.071 36.6328 612.556 40.0381 614.23 44.2158C615.922 48.4285 616.768 53.1152 616.768 58.153Z" fill="#100E0F"/>
<path d="M664.991 84.3071C664.445 84.4475 663.793 84.5879 663.053 84.7284C662.33 84.8512 661.449 84.9214 660.444 84.9214C658.717 84.9214 657.078 84.5879 655.562 83.956C654.082 83.3241 652.848 82.2358 651.914 80.6911C650.98 79.1465 650.504 76.9699 650.504 74.214V30.9455H665.062V23.1519H650.504V6.73975H641.604V23.1519H631.348V30.9455H641.604V76.0747C641.604 79.9012 642.503 83.1486 644.283 85.7289C646.046 88.3092 648.337 90.2751 651.104 91.5916C653.853 92.8906 656.761 93.5576 659.739 93.5576C661.431 93.5576 662.876 93.4347 664.039 93.1714C665.185 92.9257 666.172 92.6273 666.965 92.3289L667.317 92.1884L665.414 84.2018L664.974 84.3246L664.991 84.3071Z" fill="#100E0F"/>
<path d="M732.749 56.2923C732.749 50.5349 731.921 45.462 730.3 41.2142C728.678 36.9663 726.44 33.3855 723.638 30.577C720.853 27.7685 717.646 25.6445 714.156 24.2754C710.649 22.9063 706.966 22.2217 703.212 22.2217C697.202 22.2217 691.845 23.7839 687.28 26.8733C682.716 29.9451 679.085 34.2631 676.512 39.6695C673.939 45.0759 672.635 51.3248 672.635 58.2583C672.635 65.1918 673.939 71.4582 676.512 76.7944C679.085 82.1481 682.786 86.396 687.527 89.4151C692.268 92.4342 697.943 93.9614 704.428 93.9614C709.063 93.9614 713.222 93.2066 716.8 91.7146C720.378 90.2225 723.409 88.2215 725.806 85.7465C728.22 83.2715 729.965 80.5332 731.022 77.6018L731.181 77.1806L722.792 74.4598L722.633 74.8284C721.788 76.812 720.536 78.6726 718.897 80.3401C717.258 81.9901 715.214 83.3417 712.817 84.3247C710.42 85.3077 707.583 85.7992 704.411 85.7992C699.74 85.7992 695.652 84.6933 692.25 82.5167C688.849 80.3401 686.188 77.2332 684.337 73.2662C682.645 69.6503 681.711 65.4024 681.553 60.628H732.749V56.2572V56.2923ZM684.32 42.7589C686.152 39.0376 688.708 36.0009 691.951 33.7365C695.176 31.4897 698.965 30.3312 703.212 30.3312C707.23 30.3312 710.808 31.3493 713.875 33.3328C716.941 35.3339 719.373 38.0897 721.1 41.5301C722.774 44.8652 723.656 48.6392 723.709 52.7817H681.623C681.905 49.2009 682.804 45.8482 684.32 42.7589Z" fill="#100E0F"/>
<path d="M369.22 43.5986C368.8 41.7312 367.035 39.6956 363.487 39.7966C359.906 39.8807 359.368 42.5556 359.587 43.7668C359.805 46.6772 360.175 53.3896 360.175 53.3896C360.243 54.3317 359.587 55.1392 358.797 55.1729C358.023 55.2065 357.301 54.4663 357.233 53.5242L357.132 52.1447C357.132 51.7578 357.099 51.3708 357.082 50.9839L356.914 48.5614C356.914 48.4268 356.141 37.5255 355.317 32.5627C355.014 30.056 352.291 27.7176 348.895 27.7176C345.499 27.7176 343.431 30.056 343.616 32.5627C344.12 40.52 344.17 47.5688 344.187 55.2906C344.187 57.4608 344.187 59.5637 344.17 61.6329V61.8516C344.17 62.8105 343.431 63.5676 342.624 63.5507C341.817 63.5507 341.128 62.7601 341.128 61.8011V61.6329C341.228 49.9072 340.993 38.5012 340.304 27.4316C340.304 24.5212 337.883 22.166 334.89 22.166H332.822C329.83 22.166 327.409 24.5212 327.409 27.4316C327.157 31.0149 326.989 34.6151 326.837 38.232L326.753 39.7966C326.703 40.7555 325.946 41.4789 325.123 41.4284C324.282 41.378 323.643 40.5704 323.694 39.6115C323.694 39.6115 324.03 33.2019 324.08 32.5458C324.282 30.0224 322.281 27.7176 318.801 27.7176C315.405 27.7176 312.682 30.056 312.379 32.5458C311.841 35.86 311.421 39.2919 311.118 42.8247C310.967 44.507 310.732 49.2175 310.664 50.4792C310.58 51.9428 310.496 53.5074 310.496 53.5074C310.429 54.4663 309.74 55.1897 308.966 55.156C308.193 55.1224 307.605 54.3149 307.672 53.3728L307.823 51.1522C307.89 49.8568 307.958 48.5614 308.059 47.1987C308.126 45.9875 307.689 43.3294 304.108 43.279C300.56 43.2285 298.812 45.2809 298.409 47.1483C296.408 55.8121 296.458 63.5507 298.375 71.8613C298.93 73.4932 300.09 75.411 303.822 75.4278C306.848 75.4278 308.176 73.1231 308.008 71.9118C307.975 71.0538 307.941 70.2127 307.907 69.3715C307.907 69.3379 307.89 69.3042 307.89 69.2706L307.638 64.3078C307.588 63.3489 308.21 62.5414 309.034 62.4909C309.857 62.4404 310.547 63.1806 310.597 64.1227L310.664 65.5695C310.967 71.6426 311.623 77.6148 312.564 83.1833C313.035 85.7908 314.514 88.1797 319.104 88.1797C322.769 88.1797 324.4 85.7235 324.248 83.1833C323.744 73.8296 323.475 65.2162 323.509 55.2402C323.509 55.0215 323.509 54.8196 323.509 54.6177V54.1635C323.509 53.2046 324.164 52.4475 324.971 52.4644C325.778 52.4812 326.468 53.255 326.468 54.2139V54.3822C326.4 65.5359 326.737 76.841 327.426 88.2638C327.56 91.2583 329.847 93.5294 332.839 93.5294H334.907C337.9 93.5294 340.22 91.3088 340.321 88.2638C340.438 85.8918 340.539 83.5534 340.623 81.215C340.623 81.215 340.623 81.215 340.623 81.1981L340.657 80.4411C340.69 79.5663 340.741 78.6747 340.774 77.7999L340.859 76.2353C340.909 75.2764 341.598 74.553 342.405 74.6035C343.212 74.654 343.851 75.4615 343.801 76.4204L343.733 77.7999C343.649 79.6168 343.565 81.4505 343.464 83.3178C343.363 85.8918 344.944 88.3143 348.609 88.3143C353.198 88.3143 354.863 85.8077 355.149 83.3178C356.09 77.7158 356.695 71.7099 356.998 65.5863H357.032L357.099 64.1564C357.132 63.1975 357.838 62.4741 358.662 62.5077C359.486 62.5582 360.125 63.3657 360.074 64.3078L359.89 68.6145C359.839 69.8594 361.201 71.9959 364.109 71.9455C367.842 71.8782 368.985 69.9603 369.523 68.3117C371.338 59.9843 371.305 52.2456 369.203 43.5986H369.22Z" fill="#100E0F"/>
</svg>
