<svg xmlns="http://www.w3.org/2000/svg" width="318" height="117" viewBox="0 0 318 117" fill="none">
<path d="M108.328 13.2614C-26.6623 15.7523 -60.0739 105.026 167.914 114.487C395.901 123.948 313.218 37.4251 232.834 20.8727C168.526 7.63082 106.506 2.70542 83.5346 1.89796" stroke="url(#paint0_linear_2519_1947)" stroke-width="2"/>
<defs>
<linearGradient id="paint0_linear_2519_1947" x1="2.28044" y1="50.6602" x2="129.612" y2="207.967" gradientUnits="userSpaceOnUse">
<stop offset="0.106195" stop-color="#5457E4"/>
<stop offset="1" stop-color="#F3AF56"/>
</linearGradient>
</defs>
</svg>

<svg xmlns="http://www.w3.org/2000/svg" width="111" height="120" viewBox="0 0 111 120" fill="none">
<path d="M29.0675 50.0045C27.4778 53.0411 5.03337 87.6177 5.51419 87.8614C8.11305 89.1787 14.7941 88.294 17.5402 88.4022C34.9725 89.0889 51.3947 89.5273 68.7447 87.9709" stroke="url(#paint0_linear_2519_1943)" stroke-width="3" stroke-linecap="round"/>
<path d="M102.326 30.1204C78.4148 46.6108 52.0022 60.1585 27.0151 75.0473C20.3721 79.0056 13.1592 82.3118 8.65756 88.7332" stroke="url(#paint1_linear_2519_1943)" stroke-width="3" stroke-linecap="round"/>
<defs>
<linearGradient id="paint0_linear_2519_1943" x1="15.5137" y1="68.0322" x2="45.248" y2="106.42" gradientUnits="userSpaceOnUse">
<stop offset="0.106195" stop-color="#5457E4"/>
<stop offset="1" stop-color="#F3AF56"/>
</linearGradient>
<linearGradient id="paint1_linear_2519_1943" x1="37.8652" y1="47.0697" x2="66.9676" y2="75.165" gradientUnits="userSpaceOnUse">
<stop offset="0.106195" stop-color="#5457E4"/>
<stop offset="1" stop-color="#F3AF56"/>
</linearGradient>
</defs>
</svg>